# Blender v2.69 (sub 0) OBJ File: 'texture test.blend'
# www.blender.org
mtllib texture test.mtl
o Cube_Cube.002
v -2.162073 2.493096 0.788338
v -2.162073 2.493096 -1.211662
v -0.162073 2.493096 -1.211662
v -0.162073 2.493096 0.788338
v -2.162073 4.493096 0.788338
v -2.162073 4.493096 -1.211662
v -0.162073 4.493096 -1.211662
v -0.162073 4.493096 0.788338
v 1.447176 2.493096 -1.211662
v 1.447176 2.493096 0.788338
v 1.447176 4.493096 -1.211662
v 1.447176 4.493096 0.788338
vt 0.554132 0.554132
vt 0.277066 0.554132
vt 0.554132 0.277066
vt 0.000000 0.277066
vt 0.000000 0.000000
vt 0.277066 0.277066
vt 0.777066 0.554132
vt 0.000000 0.554132
vt 0.831198 0.277066
vt 0.831198 0.000000
vt 0.277066 0.831198
vt 0.554132 0.000000
vt 0.777066 0.277066
vt 1.000000 0.554132
vt 0.277066 0.777066
vt 0.000000 0.777066
vt 0.554132 0.831198
vt 0.777066 0.831198
vt 0.277066 0.000000
vt 1.000000 0.277066
vn -1.000000 0.000000 0.000000
vn 0.000000 0.000000 -1.000000
vn 0.000000 -1.000000 0.000000
vn 0.000000 0.000000 1.000000
vn 0.000000 1.000000 0.000000
vn 1.000000 0.000000 0.000000
usemtl None
s off
f 5/1/1 6/2/1 1/3/1
f 6/4/2 7/5/2 2/6/2
f 4/1/3 3/3/3 10/7/3
f 8/8/4 5/4/4 4/2/4
f 1/9/3 2/3/3 4/10/3
f 8/2/5 7/1/5 5/11/5
f 11/3/6 12/6/6 9/12/6
f 8/7/4 4/13/4 12/14/4
f 7/15/5 8/16/5 11/2/5
f 3/17/2 7/1/2 9/18/2
f 6/2/1 2/6/1 1/3/1
f 7/5/2 3/19/2 2/6/2
f 3/3/3 9/13/3 10/7/3
f 5/4/4 1/6/4 4/2/4
f 2/3/3 3/12/3 4/10/3
f 7/1/5 6/17/5 5/11/5
f 12/6/6 10/19/6 9/12/6
f 4/13/4 10/20/4 12/14/4
f 8/16/5 12/8/5 11/2/5
f 7/1/2 11/7/2 9/18/2
