# Blender v2.69 (sub 0) OBJ File: ''
# www.blender.org
mtllib untitled.mtl
o Cone
v 0.513180 2.140949 -1.796021
v 0.708271 2.140949 -1.776806
v 0.895864 2.140949 -1.719900
v 1.068751 2.140949 -1.627490
v 1.220287 2.140949 -1.503128
v 1.344650 2.140949 -1.351591
v 1.437060 2.140949 -1.178704
v 1.493966 2.140949 -0.991111
v 1.513180 2.140949 -0.796021
v 0.513180 4.140949 -0.796021
v 1.493966 2.140949 -0.600931
v 1.437060 2.140949 -0.413337
v 1.344650 2.140949 -0.240451
v 1.220287 2.140949 -0.088914
v 1.068751 2.140949 0.035449
v 0.895864 2.140949 0.127859
v 0.708271 2.140949 0.184765
v 0.513180 2.140949 0.203979
v 0.318090 2.140949 0.184764
v 0.130497 2.140949 0.127859
v -0.042390 2.140949 0.035449
v -0.193927 2.140949 -0.088914
v -0.318290 2.140949 -0.240451
v -0.410699 2.140949 -0.413338
v -0.467605 2.140949 -0.600931
v -0.486820 2.140949 -0.796022
v -0.467605 2.140949 -0.991112
v -0.410699 2.140949 -1.178705
v -0.318288 2.140949 -1.351592
v -0.193925 2.140949 -1.503128
v -0.042389 2.140949 -1.627491
v 0.130498 2.140949 -1.719901
v 0.318092 2.140949 -1.776806
vn -0.259887 0.445488 -0.856737
vn 0.087753 0.445488 -0.890977
vn -0.422034 0.445488 -0.789574
vn -0.567964 0.445488 -0.692067
vn -0.692065 0.445488 -0.567966
vn -0.789573 0.445488 -0.422036
vn -0.856737 0.445488 -0.259889
vn -0.890977 0.445488 -0.087754
vn -0.890977 0.445488 0.087753
vn -0.856737 0.445488 0.259887
vn -0.789574 0.445488 0.422035
vn -0.692067 0.445488 0.567964
vn -0.567965 0.445488 0.692067
vn -0.422036 0.445488 0.789573
vn -0.259889 0.445489 0.856737
vn -0.087754 0.445488 0.890977
vn 0.087753 0.445488 0.890977
vn 0.259888 0.445488 0.856737
vn 0.422036 0.445488 0.789573
vn 0.567964 0.445488 0.692067
vn 0.692067 0.445488 0.567965
vn 0.789573 0.445489 0.422036
vn 0.856737 0.445488 0.259888
vn 0.890977 0.445489 0.087753
vn 0.890977 0.445488 -0.087754
vn 0.856737 0.445488 -0.259888
vn 0.789573 0.445488 -0.422036
vn 0.692067 0.445488 -0.567965
vn 0.567964 0.445488 -0.692067
vn 0.422036 0.445488 -0.789573
vn -0.087753 0.445488 -0.890977
vn 0.259888 0.445489 -0.856737
vn 0.000000 -1.000000 0.000016
vn 0.000000 -1.000000 -0.000011
vn 0.000000 -1.000000 0.000000
vn 0.000000 -1.000000 0.000002
vn 0.000000 -1.000000 -0.000001
vn 0.000000 -1.000000 0.000001
vn 0.000000 -1.000000 0.000005
vn 0.000000 -1.000000 -0.000004
usemtl None
s off
f 32//1 10//1 33//1
f 1//2 10//2 2//2
f 31//3 10//3 32//3
f 30//4 10//4 31//4
f 29//5 10//5 30//5
f 28//6 10//6 29//6
f 27//7 10//7 28//7
f 26//8 10//8 27//8
f 25//9 10//9 26//9
f 24//10 10//10 25//10
f 23//11 10//11 24//11
f 22//12 10//12 23//12
f 21//13 10//13 22//13
f 20//14 10//14 21//14
f 19//15 10//15 20//15
f 18//16 10//16 19//16
f 17//17 10//17 18//17
f 16//18 10//18 17//18
f 15//19 10//19 16//19
f 14//20 10//20 15//20
f 13//21 10//21 14//21
f 12//22 10//22 13//22
f 11//23 10//23 12//23
f 9//24 10//24 11//24
f 8//25 10//25 9//25
f 7//26 10//26 8//26
f 6//27 10//27 7//27
f 5//28 10//28 6//28
f 4//29 10//29 5//29
f 3//30 10//30 4//30
f 33//31 10//31 1//31
f 2//32 10//32 3//32
f 1//33 2//33 33//33
f 2//34 3//34 33//34
f 3//35 4//35 33//35
f 4//35 5//35 33//35
f 5//35 6//35 33//35
f 6//35 7//35 33//35
f 7//35 8//35 33//35
f 8//36 9//36 33//36
f 9//35 11//35 33//35
f 11//35 12//35 33//35
f 12//37 13//37 33//37
f 13//38 14//38 33//38
f 20//35 18//35 19//35
f 20//39 17//39 18//39
f 20//40 16//40 17//40
f 15//35 16//35 20//35
f 14//35 15//35 20//35
f 33//35 14//35 20//35
f 22//35 20//35 21//35
f 23//35 20//35 22//35
f 24//35 20//35 23//35
f 25//35 20//35 24//35
f 26//35 20//35 25//35
f 27//35 20//35 26//35
f 32//35 33//35 20//35
f 31//35 32//35 20//35
f 30//35 31//35 20//35
f 29//35 30//35 20//35
f 28//35 29//35 20//35
f 27//35 28//35 20//35
o Cube_Cube.001
v -0.585325 0.382366 0.541621
v -0.585325 0.382366 -1.458379
v 1.414675 0.382366 -1.458379
v 1.414675 0.382366 0.541621
v -0.585325 2.382366 0.541621
v -0.585325 2.382366 -1.458379
v 1.414675 2.382366 -1.458379
v 1.414675 2.382366 0.541621
vn -1.000000 0.000000 0.000000
vn 0.000000 0.000000 -1.000000
vn 1.000000 0.000000 0.000000
vn 0.000000 0.000000 1.000000
vn 0.000000 -1.000000 0.000000
vn 0.000000 1.000000 0.000000
usemtl None
s off
f 38//41 39//41 34//41
f 39//42 40//42 35//42
f 40//43 41//43 36//43
f 41//44 38//44 37//44
f 34//45 35//45 37//45
f 41//46 40//46 38//46
f 39//41 35//41 34//41
f 40//42 36//42 35//42
f 41//43 37//43 36//43
f 38//44 34//44 37//44
f 35//45 36//45 37//45
f 40//46 39//46 38//46
